<svg xmlns="http://www.w3.org/2000/svg" viewBox="0 0 64 64" role="img" aria-label="Six Massage favicon">
  <rect width="64" height="64" rx="14" fill="#030503"/>
  <g fill="#a8ff2f">
    <rect x="6" y="14" width="7" height="24" rx="3.5"/>
    <rect x="15" y="8" width="7" height="31" rx="3.5"/>
    <rect x="24" y="5" width="7" height="35" rx="3.5"/>
    <rect x="33" y="7" width="7" height="33" rx="3.5"/>
    <rect x="42" y="11" width="7" height="29" rx="3.5"/>
    <rect x="51" y="17" width="7" height="23" rx="3.5"/>
    <path d="M13 34h38c5.2 0 8.5 3.4 8.5 8.7 0 9.9-8 16.3-20.8 16.3H29.4C17.3 59 8 51.5 8 40.8 8 36.7 9.9 34 13 34Z"/>
  </g>
  <path d="M14 43h36" stroke="#030503" stroke-width="4" stroke-linecap="round" opacity=".7"/>
</svg>
